<?xml version="1.0" encoding="UTF-8"?>
<!DOCTYPE svg PUBLIC "-//W3C//DTD SVG 1.1//EN" "http://www.w3.org/Graphics/SVG/1.1/DTD/svg11.dtd">
<!-- Creator: CorelDRAW 2019 (64-Bit) -->
<svg xmlns="http://www.w3.org/2000/svg" xml:space="preserve" width="4.23352in" height="2.44395in" version="1.1" style="shape-rendering:geometricPrecision; text-rendering:geometricPrecision; image-rendering:optimizeQuality; fill-rule:evenodd; clip-rule:evenodd"
viewBox="0 0 2970.58 1714.87"
 xmlns:xlink="http://www.w3.org/1999/xlink"
 xmlns:xodm="http://www.corel.com/coreldraw/odm/2003">
 <defs>
  <style type="text/css">
   <![CDATA[
    .fil2 {fill:url(#id0)}
    .fil1 {fill:url(#id1)}
    .fil0 {fill:url(#id2)}
    .fil3 {fill:url(#id3);fill-rule:nonzero}
   ]]>
  </style>
  <linearGradient id="id0" gradientUnits="userSpaceOnUse" x1="126.95" y1="867.64" x2="1433.42" y2="867.64">
   <stop offset="0" style="stop-opacity:1; stop-color:#C7A64F"/>
   <stop offset="0.0588235" style="stop-opacity:1; stop-color:#C2A14F"/>
   <stop offset="0.270588" style="stop-opacity:1; stop-color:#E8D55C"/>
   <stop offset="0.521569" style="stop-opacity:1; stop-color:#F1B764"/>
   <stop offset="0.811765" style="stop-opacity:1; stop-color:#D3BC3A"/>
   <stop offset="1" style="stop-opacity:1; stop-color:#BD9C50"/>
  </linearGradient>
  <linearGradient id="id1" gradientUnits="userSpaceOnUse" xlink:href="#id0" x1="399.63" y1="867.64" x2="1160.74" y2="867.64">
  </linearGradient>
  <linearGradient id="id2" gradientUnits="userSpaceOnUse" xlink:href="#id0" x1="-0" y1="857.43" x2="1536.5" y2="857.43">
  </linearGradient>
  <linearGradient id="id3" gradientUnits="objectBoundingBox" xlink:href="#id0" x1="0%" y1="50%" x2="100%" y2="50%">
  </linearGradient>
 </defs>
 <g id="Layer_x0020_1">
  <metadata id="CorelCorpID_0Corel-Layer"/>
  <g id="_2475089534144">
   <polygon class="fil0" points="768.25,0 1152.38,214.36 1536.5,428.72 1536.5,520.93 1467.36,520.93 1467.36,467.3 1117.81,272.23 768.25,77.16 418.69,272.23 69.14,467.3 69.14,857.43 69.14,1247.57 418.69,1442.64 768.25,1637.71 1117.81,1442.64 1467.36,1247.57 1467.36,1178.92 1536.5,1178.92 1536.5,1286.15 1152.38,1500.51 768.25,1714.87 384.13,1500.51 -0,1286.15 -0,857.43 -0,428.72 384.13,214.36 "/>
   <path class="fil1" d="M768.27 606.52c-3.16,-3.26 -4.79,-8.23 -11.74,-5.96 -4.4,4.66 -1.87,8.87 1.85,13.35 4.56,5.49 7.28,4.62 12.48,8.63 -1.58,7.21 -1.63,3.42 -7.97,8.13 -4.26,3.17 -4.95,5.05 -7.41,9.99 -4.46,8.95 -14.45,7.05 -6.78,21.08 -7.02,5.9 -25.95,15.76 -34.25,19.95 -49.53,24.98 -108.43,38.16 -147.9,74.33 -10.04,9.2 -16.83,18.13 -23.71,29.71 -11.6,19.52 -18.47,49.58 -2.73,69.65 2.73,3.48 4.38,4.17 6.36,7.72 4.82,-1.83 0.78,0.43 5.3,-3.09 1.61,-1.26 2.61,-2.39 4.32,-3.86 9.97,-8.59 23.28,-11.63 38.35,-11.7 -3.38,-15.16 -6.87,-16.88 -3.59,-34.59 5.51,-29.81 32.35,-56.18 58.43,-72.83 26.58,-16.96 62.8,-28.67 89.75,-45.48 2.03,-1.27 5.09,-3.08 6.54,-4.16 6.78,-5.11 11.64,-11.33 18.21,-16.55 -3.67,15.17 -6.14,10.47 -21.3,26.87 -31.69,34.32 -38.71,89.94 -12.72,128.75 3.17,4.73 11.21,15.88 14.06,16.98 -10.83,0.52 -21.19,-5.5 -32.43,11.52 -17.32,26.21 16.26,56.05 37.61,42.29 4.9,-3.16 6.81,-10.26 0.86,-13.74 -4.63,-2.71 -5.47,-0.33 -9.5,-2.88 -11.48,-7.28 12.87,-18.63 16.71,4.52 1.87,11.28 6.26,14.16 20.22,14.23 -15.39,8.46 -2.27,12.33 -17.18,24.48 -7.2,5.87 -19.04,11.95 -32.07,13.94 -34.18,5.22 -52.76,-9.14 -73.04,-19.67 -0.66,-11.91 2.22,-11.7 -10.01,-17 7,-8.07 0.14,-22.51 6.61,-31.65 8.41,-11.9 26.08,-8.26 21.41,3.96 -8.36,3.58 -15.98,-6.2 -21.22,0.46 -12.37,15.71 33.52,31.63 48.1,4.81 11.27,-20.73 -2.88,-43.67 -30.38,-42.63 -12.28,0.46 -14.6,2.15 -24.09,5.44 1.78,-15.37 -0.41,-21.71 -10.48,-31.66 -2.77,-2.74 -2.89,-3.33 -6.19,-5.66 -2.83,-2 -4.28,-2.75 -6.88,-4.99 -3.16,-2.73 -2.75,-2.89 -6.49,-5.29 -3.83,-2.45 -3.25,-3.61 -7.64,-4.84 -1.81,2.54 -1.73,3.37 -2.86,6.72l-8.11 20.12c-5.97,20.3 0.97,20.55 -0.36,30.72 -16.84,0.52 -32.17,6.02 -40.13,14.03 -18.56,18.66 -8.77,57.05 26.9,57.53 20.16,0.27 34.85,-15.58 25.2,-22.17 -6,-3.23 -3,2.17 -12.59,0.38 -3.12,-4.51 -0.07,-8.1 3.31,-12.22 17.8,-2.34 19.83,5.04 28.93,13.55 4.4,4.11 4.94,2.26 9.36,4.52 -8.89,5.38 -8.79,8.63 -4.15,17.39 -17.83,27.43 -64.35,29.42 -97.09,13.46 -9.02,-4.4 -18.5,-10.71 -25.58,-17.12 10.07,-7.56 6.27,-20.45 -14.39,-19.11 -1.17,-6.86 -3.11,-9.05 1.79,-13.8 17.12,-3.69 26.7,17.4 43.48,12.83 0.23,-6.66 -12.66,-43.65 -17.27,-49.64 -4.14,-5.38 -12.69,-11.72 -22.37,-13.62 -13.45,-2.64 -19.82,2.28 -29.01,8.17l-13.5 -21.14c0.3,-0.16 0.76,-0.67 0.92,-0.44l3.68 -1.55c5.19,-2.06 8.06,-3.54 10.21,-8.73 9.9,-23.88 -34.53,-32.06 -36.86,-6.17 -10.22,-2.84 -25.41,-9.74 -37.63,-4.5 0.39,5.87 16.71,14.83 26.79,26.14l39.23 48.14c7.27,9.84 16.6,19.17 22.64,29.7 2.71,4.73 0.92,8.77 4.77,12.28 4.64,4.22 4.81,0.13 9.73,7.98 6.64,28.7 16.24,52.3 16.29,80.01 173.66,-44.08 389.05,-49.34 525.03,-2.91 -0.73,-20.95 -3.92,-49.04 9.07,-69.2 2.35,-3.65 4.2,-6.98 6.44,-10.84 4.55,-7.84 4.34,-3.69 9.41,-8.2 4.56,-4.06 1.5,-7.03 4.72,-12.26 8.84,-14.33 57.55,-78.04 69.2,-87.49 6.3,-5.11 17.41,-11.99 17.79,-17.54 -12.14,-4.94 -27.06,1.7 -37.4,4.99 -1.83,-14.99 -19.9,-21.25 -32.27,-11.54 -4.51,3.54 -8,10.91 -4.61,17.88 4.2,8.61 8.17,6.27 14.99,10.7 -4.21,4.61 -10.32,14.22 -12.34,21.53 -8.8,-4.72 -12.71,-10.66 -27.82,-8.45 -11.27,1.64 -19,7.69 -23.19,13.1 -6.46,8.32 -17,41.96 -17.85,51.85 12.9,-0.8 15.27,-3.14 23.54,-8.21 8.01,-4.91 13.27,-9.53 22.54,-4.15 1.02,5.93 0.79,6.9 -1.48,12.14 -6.96,-1.39 -13.08,-0.54 -16.46,4.47 -4.53,6.7 1.59,11.42 3.24,15.88 -3.67,1.36 -3.26,1.25 -5.84,3.48 -5.69,4.92 -12.55,8.94 -19.55,12.69 -23.35,12.49 -64.68,16.84 -86.2,-1.05 -2.88,-2.39 -7.52,-7.82 -11.03,-9.87 2.12,-9.64 8.01,-9.49 -4.36,-18.85 6.32,-3.59 5.38,0.84 11.38,-7.12 13.09,-17.35 35.87,-14.55 31.23,0.06 -8.87,4.11 -7.05,-2.82 -14.04,0.19 -14.78,18.97 43.46,37.42 59.38,0.41 12.07,-28.05 -14.53,-49.67 -47.86,-49.54 -1.24,-10.92 8.76,-15.2 -6.18,-43.75l-4.66 -11.41c-1.3,-2.61 -0.4,-1.05 -1.49,-2.44l-19.94 15.05c-13.29,9.6 -19.97,20.7 -16.6,38.03 -46.17,-17 -69.34,12.48 -53.61,38.23 6.25,10.23 21.44,18.54 39.28,11.08 5.83,-2.44 13.19,-9.51 8.84,-16.43 -4.71,-7.5 -12.46,2.49 -21.82,-0.75 -5.74,-15.57 23.82,-18.05 25.4,11.05 0.55,10.21 -3.29,9.32 3.33,16.29 -10.79,5.06 -10.98,4.56 -9.72,17.32 -9.87,3.86 -17.8,11.04 -31.44,15.86 -12.56,4.44 -27.92,6.86 -42.65,4.21 -14.04,-2.52 -24.37,-7.86 -32.45,-14.61 -10.35,-8.64 -5.07,-3.99 -7.66,-15.31 -1.66,-7.25 -9.17,-7.04 -15.04,-8.47 14.16,-0.39 23.33,2.88 26.07,-10.92 1.21,-6.11 0.53,-9.03 4.86,-13.22 10.44,-10.08 21.74,2.61 10.45,6.57 -2.49,0.88 -3.03,0.33 -6.08,1.48 -2.51,0.94 -2.6,1.69 -4.94,2.91 -1.77,13.76 12.29,17.02 25.73,12.35 23.5,-8.16 25.26,-32.1 12.36,-47.6 -6.86,-8.25 -15.25,-9.21 -29.47,-6.72 40.02,-39.07 37.92,-115.62 -9.13,-154.45 -8.29,-6.84 -11.15,-8.52 -13.66,-19.03 14.98,16.31 31.85,25.24 54.18,35.46 29.91,13.68 65.08,26.55 85.81,48.44 7.24,7.64 14.31,14.18 21.1,23.3 6.21,8.35 11.46,18.07 13.98,29.48 3.84,17.31 1.19,20.25 -2.97,35.77 8.96,-0.24 21.14,1.24 28.47,4.54 9.18,4.14 11.1,9.77 19.89,13.59 3.06,-5.18 7.14,-7.8 10.35,-14.99 2.92,-6.53 4.75,-13.81 4.69,-21.5 -0.23,-27.88 -16.18,-50.4 -36.11,-70.02 -35.61,-35.04 -111.56,-51.4 -166.89,-82.47 -5.77,-3.24 -12.42,-6.21 -17.22,-10.2 6.29,-14.73 -1.52,-12.31 -6.03,-18.83 -2.79,-4.02 -1.48,-5.17 -5.71,-9.31 -3.34,-3.26 -4.54,-4.22 -10.14,-6.48 -0.59,-5.31 -0.35,-4.43 4.69,-7.7 1.5,-0.97 5.32,-3.91 6.1,-4.7 4.04,-4.06 5.62,-8.3 3.2,-14.03 -7.21,-2.16 -8.04,1.09 -11.77,4.94 -0.15,-0.27 -0.3,-0.98 -0.35,-0.83 -0.58,1.81 -1.78,-15.35 -11.29,-19.04 -7.69,2.96 -9.95,13.1 -10.27,21.09zm15.82 460.44c144.5,0 269.17,21.73 261.64,46.74 -12.79,42.5 -503.37,53.61 -523.29,0 -7.17,-19.3 117.14,-46.74 261.64,-46.74zm-264.65 30.66c164.87,-58.19 378.65,-44.94 525,-6.82l-0.15 -19.59c-110.47,-46.22 -349.13,-54.2 -525.06,1.01l0.21 25.4zm438.75 -409.21c-24.36,3.87 -15.53,32.21 5.98,28.19 19.58,-3.67 15.56,-31.61 -5.98,-28.19zm-362.37 2.08c-23.11,3.93 -15.54,31.49 5.88,28.17 21.74,-3.38 15.88,-31.87 -5.88,-28.17zm-35.3 8.5c-22.38,3.05 -18.88,32.15 4.63,30.23 22.51,-1.84 19.23,-33.47 -4.63,-30.23zm431.37 -1.81c-24.83,5.91 -12.61,35.52 10.52,28.87 20.78,-5.97 11.8,-34.18 -10.52,-28.87zm37.12 10.62c-24.75,6.74 -12.64,35.61 10.27,29.77 22.54,-5.75 12.61,-36 -10.27,-29.77zm-507.65 2.45c-24.19,5.2 -14.65,35.4 8.83,30.4 22.03,-4.7 15.1,-35.55 -8.83,-30.4zm545.45 12.26c-24.95,4 -17.24,35.43 7.75,30.8 21.7,-4.02 15.98,-34.61 -7.75,-30.8zm-579.82 3.06c-24.91,3.93 -18.84,33.96 5.57,31.19 22.82,-2.58 18.54,-35 -5.57,-31.19zm603.26 24.12c-24.78,6.45 -14.42,35.64 10.09,30.65 8.61,-1.75 16.1,-10.58 12.58,-20.47 -2.5,-7.03 -12.04,-12.95 -22.67,-10.18zm-629.94 3.24c-24.11,5.66 -14.69,36.1 9.57,30.92 24.24,-5.17 13.89,-36.42 -9.57,-30.92zm201.56 -63.34c-8.75,-5.03 -12.53,-4.01 -19.13,2.17 -3.96,-2.62 -9.55,-7.46 -18.04,-4.56 -14.42,4.92 -11.12,23.88 5.43,23.89 10.39,0.01 11.75,-6.2 15.23,-9.74 9.74,6.27 13.95,1.9 18.75,-5.02 9.98,6.25 15.59,-3.78 15.31,-8.22 -6.95,-2.71 -12.55,-3.32 -17.56,1.49zm217.08 -2.62c0.22,2.91 2.54,6.58 4.53,8.18 4.4,3.53 7.3,1.66 12.32,0.15 2.57,9.52 10.32,8.31 19.2,4.3 3.7,13.91 25.67,12.32 28.13,0.06 2.21,-11 -9.49,-17.46 -19.77,-14.08 -3.61,1.19 -4.98,3.25 -7.43,4.64 -7.17,-7.1 -10.9,-6.22 -19.16,-1.9 -6.39,-6.46 -8.2,-4.11 -17.82,-1.35zm-359.58 333.27l0.25 41.6c187.42,-50.43 361.6,-48.02 525.01,-2.65l-0.41 -55.27c-115.2,-40.86 -351.49,-45.47 -525.05,3.02l0.2 13.3zm476.65 -19.39c7.65,0 13.85,5.27 13.85,11.78 0,6.5 -6.2,11.78 -13.85,11.78 -7.65,0 -13.85,-5.28 -13.85,-11.78 0,-6.51 6.2,-11.78 13.85,-11.78zm-424.37 5.44c7.65,0 13.85,5.27 13.85,11.78 0,6.5 -6.2,11.78 -13.85,11.78 -7.65,0 -13.85,-5.28 -13.85,-11.78 0,-6.51 6.2,-11.78 13.85,-11.78zm324.14 -13.61c7.65,0 13.85,5.28 13.85,11.78 0,6.51 -6.2,11.78 -13.85,11.78 -7.65,0 -13.85,-5.27 -13.85,-11.78 0,-6.5 6.2,-11.78 13.85,-11.78zm-119.42 -1.81c7.65,0 13.85,5.27 13.85,11.78 0,6.51 -6.2,11.78 -13.85,11.78 -7.65,0 -13.85,-5.27 -13.85,-11.78 0,-6.51 6.2,-11.78 13.85,-11.78zm-102.36 1.83c7.65,0 13.85,5.27 13.85,11.78 0,6.5 -6.2,11.78 -13.85,11.78 -7.65,0 -13.85,-5.27 -13.85,-11.78 0,-6.51 6.2,-11.78 13.85,-11.78z"/>
   <polygon class="fil2" points="780.19,138.57 1106.81,320.83 1433.42,503.1 1433.42,531.13 1392.41,531.13 1392.41,525.99 1086.3,355.16 780.19,184.34 474.08,355.16 167.96,525.99 167.96,867.64 167.96,1209.29 474.08,1380.11 780.19,1550.94 1086.3,1380.11 1392.41,1209.29 1392.41,1189.13 1433.42,1189.13 1433.42,1232.17 1106.81,1414.45 780.19,1596.71 453.57,1414.45 126.95,1232.17 126.95,867.64 126.95,503.1 453.57,320.83 "/>
   <polygon class="fil3" points="1316.54,657.21 1381.04,821.87 1459.25,821.87 1523.74,657.21 1468.46,657.21 1423.57,777.96 1416.52,777.96 1371.63,657.21 "/>
   <path class="fil3" d="M1542.73 739.54c0,51.55 34.69,84.68 99.19,84.68 64.3,0 99.19,-33.13 99.19,-84.68 0,-51.55 -34.89,-84.68 -99.19,-84.68 -64.49,0 -99.19,33.13 -99.19,84.68zm51.95 0c0,-25.48 14.31,-41.17 47.24,-41.17 32.74,0 47.05,15.68 47.05,41.17 0,25.48 -14.31,41.16 -47.05,41.16 -32.93,0 -47.24,-15.68 -47.24,-41.16z"/>
   <polygon class="fil3" points="1902.4,821.87 1968.65,821.87 1895.15,740.13 1968.65,657.21 1905.14,657.21 1864.37,706.02 1820.46,657.21 1754.21,657.21 1827.71,738.96 1754.21,821.87 1817.72,821.87 1858.49,773.06 "/>
   <path class="fil3" d="M2064.09 821.87l51.75 0 0 -55.67 27.05 0c17.84,0 23.33,2.35 28.23,11.76l22.54 43.91 55.87 0 -26.27 -50.77c-4.31,-8.23 -10.98,-14.31 -19.4,-18.62 20.38,-4.7 34.3,-21.56 34.3,-44.3 0,-30.77 -25.68,-50.97 -65.08,-50.97l-108.99 0 0 164.66zm51.75 -89.78l0 -32.54 48.61 0c13.72,0 21.95,5.88 21.95,16.08 0,10.58 -7.84,16.46 -21.95,16.46l-48.61 0z"/>
   <polygon class="fil3" points="2288.11,821.87 2443.56,821.87 2443.56,780.71 2339.86,780.71 2339.86,756.01 2425.92,756.01 2425.92,719.55 2339.86,719.55 2339.86,698.38 2443.56,698.38 2443.56,657.21 2288.11,657.21 "/>
   <path class="fil3" d="M2579.57 784.24c-31.56,0 -49.79,-16.46 -49.79,-44.89 0,-28.42 15.88,-44.5 44.5,-44.5 19.21,0 32.93,7.06 34.5,18.03l52.73 0c-3.33,-37.05 -37.44,-58.02 -88.01,-58.02 -58.02,0 -95.66,33.13 -95.66,84.68 0,52.14 39.01,84.68 102.13,84.68 34.5,0 64.49,-9.6 84.09,-28.62l0 -69.2 -96.25 0 0 32.93 44.5 0 0 17.64c-4.9,3.33 -17.05,7.25 -32.74,7.25z"/>
   <polygon class="fil3" points="2706.57,821.87 2758.32,821.87 2758.32,657.21 2706.57,657.21 "/>
   <path class="fil3" d="M2799.06 708.57c0,46.07 46.85,47.24 81.15,49.4 21.56,1.37 38.23,3.14 38.23,15.09 0,9.02 -9.61,13.53 -29.99,13.53 -25.68,0 -38.81,-7.06 -38.81,-20.98l-52.73 0c0,37.64 29.99,58.61 88.21,58.61 55.47,0 85.47,-19.01 85.47,-57.63 0,-43.52 -51.75,-42.54 -89.58,-45.48 -16.27,-1.18 -29.99,-3.14 -29.99,-13.14 0,-9.21 10.59,-15.48 29.99,-15.48 20.19,0 34.3,6.66 34.3,20.19l52.53 0c0,-37.44 -29.99,-57.83 -84.49,-57.83 -53.51,0 -84.29,19.6 -84.29,53.71z"/>
   <path class="fil3" d="M1324.58 963.55c0,46.07 46.85,47.24 81.15,49.4 21.56,1.37 38.23,3.14 38.23,15.09 0,9.02 -9.61,13.53 -29.99,13.53 -25.68,0 -38.81,-7.06 -38.81,-20.98l-52.73 0c0,37.64 29.99,58.61 88.21,58.61 55.47,0 85.47,-19.01 85.47,-57.63 0,-43.52 -51.75,-42.54 -89.58,-45.48 -16.27,-1.18 -29.99,-3.14 -29.99,-13.14 0,-9.21 10.59,-15.48 29.99,-15.48 20.19,0 34.3,6.66 34.3,20.19l52.53 0c0,-37.44 -29.99,-57.83 -84.49,-57.83 -53.51,0 -84.29,19.6 -84.29,53.71z"/>
   <path class="fil3" d="M1530.77 1052.74c0,16.47 9.61,26.07 25.88,26.07 16.07,0 25.68,-9.61 25.68,-26.07 0,-16.07 -9.61,-25.68 -25.68,-25.68 -16.27,0 -25.88,9.61 -25.88,25.68z"/>
   <path class="fil3" d="M1611.11 1076.85l55.08 0 13.72 -35.68 79.19 0 13.72 35.68 55.28 0 -66.45 -164.66 -84.09 0 -66.45 164.66zm83.51 -73.7l19.01 -49.01 11.76 0 19.01 49.01 -49.79 0z"/>
   <path class="fil3" d="M1856.89 1052.74c0,16.47 9.61,26.07 25.88,26.07 16.07,0 25.68,-9.61 25.68,-26.07 0,-16.07 -9.61,-25.68 -25.68,-25.68 -16.27,0 -25.88,9.61 -25.88,25.68z"/>
   <path class="fil3" d="M1949 1076.85l51.75 0 0 -47.44 59.59 0c34.89,0 58.41,-24.7 58.41,-60.77 0,-35.09 -22.35,-56.45 -58.41,-56.45l-111.34 0 0 164.66zm51.75 -87.43l0 -34.89 44.3 0c13.72,0 21.95,6.27 21.95,17.45 0,10.98 -7.84,17.45 -21.95,17.45l-44.3 0z"/>
   <polygon class="fil3" points="1316.54,657.21 1381.04,821.87 1459.25,821.87 1523.74,657.21 1468.46,657.21 1423.57,777.96 1416.52,777.96 1371.63,657.21 "/>
   <path class="fil3" d="M1542.73 739.54c0,51.55 34.69,84.68 99.19,84.68 64.3,0 99.19,-33.13 99.19,-84.68 0,-51.55 -34.89,-84.68 -99.19,-84.68 -64.49,0 -99.19,33.13 -99.19,84.68zm51.95 0c0,-25.48 14.31,-41.17 47.24,-41.17 32.74,0 47.05,15.68 47.05,41.17 0,25.48 -14.31,41.16 -47.05,41.16 -32.93,0 -47.24,-15.68 -47.24,-41.16z"/>
   <path class="fil3" d="M2064.09 821.87l51.75 0 0 -55.67 27.05 0c17.84,0 23.33,2.35 28.23,11.76l22.54 43.91 55.87 0 -26.27 -50.77c-4.31,-8.23 -10.98,-14.31 -19.4,-18.62 20.38,-4.7 34.3,-21.56 34.3,-44.3 0,-30.77 -25.68,-50.97 -65.08,-50.97l-108.99 0 0 164.66zm51.75 -89.78l0 -32.54 48.61 0c13.72,0 21.95,5.88 21.95,16.08 0,10.58 -7.84,16.46 -21.95,16.46l-48.61 0z"/>
   <polygon class="fil3" points="2288.11,821.87 2443.56,821.87 2443.56,780.71 2339.86,780.71 2339.86,756.01 2425.92,756.01 2425.92,719.55 2339.86,719.55 2339.86,698.38 2443.56,698.38 2443.56,657.21 2288.11,657.21 "/>
   <path class="fil3" d="M2579.57 784.24c-31.56,0 -49.79,-16.46 -49.79,-44.89 0,-28.42 15.88,-44.5 44.5,-44.5 19.21,0 32.93,7.06 34.5,18.03l52.73 0c-3.33,-37.05 -37.44,-58.02 -88.01,-58.02 -58.02,0 -95.66,33.13 -95.66,84.68 0,52.14 39.01,84.68 102.13,84.68 34.5,0 64.49,-9.6 84.09,-28.62l0 -69.2 -96.25 0 0 32.93 44.5 0 0 17.64c-4.9,3.33 -17.05,7.25 -32.74,7.25z"/>
   <polygon class="fil3" points="2706.57,821.87 2758.32,821.87 2758.32,657.21 2706.57,657.21 "/>
   <path class="fil3" d="M2799.06 708.57c0,46.07 46.85,47.24 81.15,49.4 21.56,1.37 38.23,3.14 38.23,15.09 0,9.02 -9.61,13.53 -29.99,13.53 -25.68,0 -38.81,-7.06 -38.81,-20.98l-52.73 0c0,37.64 29.99,58.61 88.21,58.61 55.47,0 85.47,-19.01 85.47,-57.63 0,-43.52 -51.75,-42.54 -89.58,-45.48 -16.27,-1.18 -29.99,-3.14 -29.99,-13.14 0,-9.21 10.59,-15.48 29.99,-15.48 20.19,0 34.3,6.66 34.3,20.19l52.53 0c0,-37.44 -29.99,-57.83 -84.49,-57.83 -53.51,0 -84.29,19.6 -84.29,53.71z"/>
   <path class="fil3" d="M1324.58 963.55c0,46.07 46.85,47.24 81.15,49.4 21.56,1.37 38.23,3.14 38.23,15.09 0,9.02 -9.61,13.53 -29.99,13.53 -25.68,0 -38.81,-7.06 -38.81,-20.98l-52.73 0c0,37.64 29.99,58.61 88.21,58.61 55.47,0 85.47,-19.01 85.47,-57.63 0,-43.52 -51.75,-42.54 -89.58,-45.48 -16.27,-1.18 -29.99,-3.14 -29.99,-13.14 0,-9.21 10.59,-15.48 29.99,-15.48 20.19,0 34.3,6.66 34.3,20.19l52.53 0c0,-37.44 -29.99,-57.83 -84.49,-57.83 -53.51,0 -84.29,19.6 -84.29,53.71z"/>
   <path class="fil3" d="M1530.77 1052.74c0,16.47 9.61,26.07 25.88,26.07 16.07,0 25.68,-9.61 25.68,-26.07 0,-16.07 -9.61,-25.68 -25.68,-25.68 -16.27,0 -25.88,9.61 -25.88,25.68z"/>
   <path class="fil3" d="M1611.11 1076.85l55.08 0 13.72 -35.68 79.19 0 13.72 35.68 55.28 0 -66.45 -164.66 -84.09 0 -66.45 164.66zm83.51 -73.7l19.01 -49.01 11.76 0 19.01 49.01 -49.79 0z"/>
   <path class="fil3" d="M1856.89 1052.74c0,16.47 9.61,26.07 25.88,26.07 16.07,0 25.68,-9.61 25.68,-26.07 0,-16.07 -9.61,-25.68 -25.68,-25.68 -16.27,0 -25.88,9.61 -25.88,25.68z"/>
   <path class="fil3" d="M1949 1076.85l51.75 0 0 -47.44 59.59 0c34.89,0 58.41,-24.7 58.41,-60.77 0,-35.09 -22.35,-56.45 -58.41,-56.45l-111.34 0 0 164.66zm51.75 -87.43l0 -34.89 44.3 0c13.72,0 21.95,6.27 21.95,17.45 0,10.98 -7.84,17.45 -21.95,17.45l-44.3 0z"/>
  </g>
 </g>
</svg>
